# xmcd
#
# Track frame offsets:
#	150
#	20989
#	39889
#	60340
#	83958
#	108788
#	129007
#	152800
#	173819
#	198064
#	221014
#	245020
#
# Disc length: 3504 seconds
#
# Revision: 4
# Processed by: cddbd v1.5.2PL0 Copyright (c) Steve Scherf et al.
# Submitted via: EZCDAudioConverter 2.1.7.1
#
DISCID=940dae0c
DTITLE=Bang Kieu and Minh Tuyet - Mot Lan Nua Xin Co Nhau
DYEAR=2010
DGENRE=Vietnamese
TTITLE0=Bang Kieu and Minh Tuyet - Mot Lan Nua Xin Co Nhau
TTITLE1=Minh Tuyet - Loi Xin Loi Co Thuc Su Kho Noi
TTITLE2=Bang Kieu and Minh Tuyet - Tan Moi Tinh Dau
TTITLE3=Bang Kieu - De Nho Mot Thoi Ta Da Yeu
TTITLE4=Bang Kieu and Minh Tuyet - Dieu Uoc
TTITLE5=Minh Tuyet - Hay Co Quen
TTITLE6=Bang Kieu and Minh Tuyet - Da Biet Khi Yeu
TTITLE7=Bang Kieu - Dong Tin Nhan
TTITLE8=Bang Kieu and Minh Tuyet - Nhu Da Dau Yeu
TTITLE9=Minh Tuyet - Tai Vi Chinh Em
TTITLE10=Bang Kieu and Minh Tuyet - Con Nho Khong Em
TTITLE11=Bang Kieu - Mua Va Em
EXTD=
EXTT0=
EXTT1=
EXTT2=
EXTT3=
EXTT4=
EXTT5=
EXTT6=
EXTT7=
EXTT8=
EXTT9=
EXTT10=
EXTT11=
PLAYORDER=
